Coordinates
version=1
nRows=65
nColumns=12
inDegrees=yes

Units are S.I. units (second, meters, Newtons, ...)
Angles are in degrees

endheader
time	SC_y	SC_z	SC_x	AC_y	AC_z	AC_x	GH_y	GH_z	GH_yy	EL_x	PS_y
       0.0               -46.8          24.41          15.19          61.39          8.882          1.734         -52.56          13.25          117.8          13.16          40.59
   0.03156               -46.8          24.41          15.19          61.38          8.882          1.734         -52.55          13.25          117.8          13.16          40.61
   0.06311               -46.8           24.4          15.19          61.38          8.882          1.734         -52.54          13.25          117.8          13.17          40.62
   0.09467               -46.8           24.4          15.19          61.37          8.882          1.734         -52.54          13.25          117.8          13.17          40.64
    0.1262               -46.8           24.4          15.19          61.37          8.882          1.735         -52.53          13.25          117.8          13.17          40.66
    0.1578               -46.8          24.39          15.19          61.36          8.882          1.735         -52.52          13.25          117.8          13.17          40.68
    0.1893               -46.8          24.39          15.19          61.36          8.882          1.735         -52.52          13.25          117.8          13.17          40.71
    0.2209               -46.8          24.39           15.2          61.35          8.882          1.736         -52.51          13.25          117.7          13.17          40.73
    0.2524               -46.8          24.38           15.2          61.34          8.882          1.736          -52.5          13.25          117.7          13.17          40.76
     0.284               -46.8          24.38           15.2          61.34          8.882          1.737         -52.49          13.25          117.7          13.17          40.78
    0.3156               -46.8          24.37           15.2          61.33          8.882          1.737         -52.48          13.25          117.7          13.17          40.81
    0.3471              -46.79          24.37           15.2          61.32          8.883          1.738         -52.47          13.25          117.7          13.17          40.85
    0.3787              -46.79          24.36           15.2          61.31          8.883          1.738         -52.46          13.25          117.7          13.17          40.88
    0.4102              -46.79          24.36           15.2           61.3          8.883          1.739         -52.45          13.25          117.7          13.17          40.92
    0.4418              -46.79          24.35           15.2          61.29          8.883          1.739         -52.43          13.24          117.7          13.18          40.96
    0.4733              -46.79          24.34           15.2          61.28          8.883           1.74         -52.42          13.24          117.7          13.18           41.0
    0.5049              -46.79          24.34           15.2          61.27          8.883          1.741          -52.4          13.24          117.6          13.18          41.05
    0.5364              -46.79          24.33           15.2          61.25          8.883          1.742         -52.38          13.24          117.6          13.18           41.1
     0.568              -46.78          24.32          15.21          61.24          8.884          1.742         -52.36          13.24          117.6          13.18          41.16
    0.5996              -46.78          24.31          15.21          61.22          8.884          1.743         -52.34          13.24          117.6          13.18          41.22
    0.6311              -46.78           24.3          15.21           61.2          8.884          1.744         -52.32          13.24          117.5          13.19          41.29
    0.6627              -46.78          24.29          15.21          61.18          8.884          1.746          -52.3          13.24          117.5          13.19          41.37
    0.6942              -46.77          24.27          15.21          61.16          8.885          1.747         -52.27          13.23          117.5          13.19          41.45
    0.7258              -46.77          24.26          15.22          61.14          8.885          1.748         -52.24          13.23          117.5          13.19          41.54
    0.7573              -46.77          24.24          15.22          61.11          8.885           1.75          -52.2          13.23          117.4           13.2          41.64
    0.7889              -46.76          24.23          15.22          61.08          8.886          1.752         -52.16          13.23          117.4           13.2          41.76
    0.8204              -46.76          24.21          15.22          61.05          8.886          1.754         -52.12          13.22          117.3           13.2          41.89
     0.852              -46.75          24.18          15.23          61.01          8.887          1.756         -52.07          13.22          117.3          13.21          42.03
    0.8836              -46.75          24.16          15.23          60.97          8.887          1.758         -52.02          13.22          117.2          13.21          42.19
    0.9151              -46.74          24.13          15.24          60.92          8.888          1.761         -51.96          13.21          117.2          13.22          42.38
    0.9467              -46.73           24.1          15.24          60.87          8.888          1.764         -51.89          13.21          117.1          13.23          42.59
    0.9782              -46.72          24.06          15.25          60.81          8.889          1.768         -51.81           13.2          117.0          13.23          42.83
      1.01              -46.71          24.01          15.25          60.73           8.89          1.772         -51.71           13.2          116.9          13.24          43.11
     1.041               -46.7          23.96          15.26          60.65          8.891          1.777          -51.6          13.19          116.8          13.25          43.43
     1.073              -46.69           23.9          15.27          60.55          8.892          1.783         -51.48          13.18          116.7          13.26          43.81
     1.104              -46.67          23.83          15.28          60.44          8.894           1.79         -51.33          13.17          116.5          13.28          44.26
     1.136              -46.65          23.75          15.29           60.3          8.896          1.798         -51.15          13.16          116.3          13.29          44.79
     1.168              -46.63          23.65          15.31          60.13          8.898          1.808         -50.93          13.15          116.1          13.31          45.43
     1.199               -46.6          23.53          15.33          59.94            8.9           1.82         -50.68          13.13          115.8          13.34           46.2
     1.231              -46.57          23.38          15.35          59.69          8.904          1.834         -50.36          13.11          115.5          13.37          47.14
     1.262              -46.53           23.2          15.38          59.39          8.907          1.852         -49.97          13.09          115.1           13.4           48.3
     1.294              -46.48          22.98          15.42          59.02          8.912          1.874         -49.48          13.06          114.6          13.45          49.75
     1.325              -46.41          22.69          15.46          58.54          8.918          1.902         -48.87          13.02          113.9          13.51          51.58
     1.357              -46.33          22.33          15.52          57.94          8.926          1.938         -48.09          12.97          113.1          13.58           53.9
     1.388              -46.23          21.86          15.59          57.18          8.936          1.984          -47.1           12.9          112.1          13.67          56.87
      1.42              -46.09          21.26          15.68          56.19          8.949          2.042         -45.82          12.82          110.7          13.79          60.68
     1.452              -45.92           20.5           15.8          54.93          8.965          2.117         -44.19          12.72          109.0          13.94          65.55
     1.483               -45.7          19.54          15.95          53.35          8.985          2.211         -42.14          12.59          106.9          14.13          71.67
     1.515              -45.44          18.38          16.13          51.42           9.01          2.326         -39.64          12.43          104.3          14.36          79.13
     1.546              -45.13          17.02          16.34          49.18          9.039          2.458         -36.74          12.24          101.2          14.63          87.78
     1.578               -44.8          15.56          16.57          46.76           9.07          2.602          -33.6          12.04          97.94          14.92          97.14
     1.609              -44.47          14.09           16.8          44.34          9.102          2.746         -30.46          11.84          94.66          15.21          106.5
     1.641              -44.16          12.74          17.01           42.1          9.131          2.879         -27.56          11.66          91.62          15.48          115.2
     1.672              -43.89          11.57          17.19          40.18          9.155          2.994         -25.06           11.5           89.0          15.72          122.6
     1.704              -43.68          10.61          17.34          38.59          9.176          3.088         -23.01          11.37          86.85          15.91          128.7
     1.736               -43.5           9.85          17.46          37.33          9.192          3.162         -21.38          11.27          85.14          16.06          133.6
     1.767              -43.37          9.253          17.55          36.35          9.205          3.221          -20.1          11.18          83.81          16.18          137.4
     1.799              -43.26          8.789          17.63          35.58          9.215          3.267          -19.1          11.12          82.76          16.27          140.4
      1.83              -43.18          8.425          17.68          34.98          9.223          3.302         -18.32          11.07          81.95          16.34          142.7
     1.862              -43.12           8.14          17.73          34.51          9.229           3.33         -17.71          11.03          81.31           16.4          144.5
     1.893              -43.07          7.913          17.76          34.13          9.233          3.353         -17.23           11.0           80.8          16.44          146.0
     1.925              -43.02          7.731          17.79          33.83          9.237           3.37         -16.84          10.98          80.39          16.48          147.1
     1.956              -42.99          7.584          17.81          33.59           9.24          3.385         -16.52          10.96          80.06          16.51          148.1
     1.988              -42.96          7.463          17.83          33.39          9.243          3.397         -16.26          10.94          79.79          16.53          148.9
      2.02              -42.94          7.363          17.85          33.22          9.245          3.406         -16.05          10.93          79.57          16.55          149.5
